<svg width="20" height="16" viewBox="0 0 20 16" fill="none" xmlns="http://www.w3.org/2000/svg">
<mask id="path-1-inside-1" fill="white">
<path fill-rule="evenodd" clip-rule="evenodd" d="M7.97101 13.0435C12.3733 13.0435 15.942 10.1236 15.942 6.52174C15.942 2.91988 12.3733 0 7.97101 0C3.56874 0 0 2.91988 0 6.52174C0 8.50942 1.08682 10.2894 2.80077 11.4856L2.76446 15.1401L6.64099 12.9531C7.07351 13.0125 7.51785 13.0435 7.97101 13.0435Z"/>
</mask>
<path fill-rule="evenodd" clip-rule="evenodd" d="M7.97101 13.0435C12.3733 13.0435 15.942 10.1236 15.942 6.52174C15.942 2.91988 12.3733 0 7.97101 0C3.56874 0 0 2.91988 0 6.52174C0 8.50942 1.08682 10.2894 2.80077 11.4856L2.76446 15.1401L6.64099 12.9531C7.07351 13.0125 7.51785 13.0435 7.97101 13.0435Z" fill="white"/>
<path d="M2.80077 11.4856L3.80072 11.4956L3.80597 10.9677L3.37309 10.6656L2.80077 11.4856ZM2.76446 15.1401L1.76451 15.1302L1.7473 16.8622L3.25583 16.0111L2.76446 15.1401ZM6.64099 12.9531L6.77714 11.9624L6.4432 11.9165L6.14962 12.0821L6.64099 12.9531ZM14.942 6.52174C14.942 9.39304 12.018 12.0435 7.97101 12.0435V14.0435C12.7286 14.0435 16.942 10.8541 16.942 6.52174H14.942ZM7.97101 1C12.018 1 14.942 3.65043 14.942 6.52174H16.942C16.942 2.18933 12.7286 -1 7.97101 -1V1ZM1 6.52174C1 3.65043 3.92405 1 7.97101 1V-1C3.21344 -1 -1 2.18933 -1 6.52174H1ZM3.37309 10.6656C1.873 9.61864 1 8.12174 1 6.52174H-1C-1 8.8971 0.300633 10.9602 2.22845 12.3057L3.37309 10.6656ZM3.76441 15.1501L3.80072 11.4956L1.80082 11.4757L1.76451 15.1302L3.76441 15.1501ZM6.14962 12.0821L2.27309 14.2692L3.25583 16.0111L7.13236 13.824L6.14962 12.0821ZM7.97101 12.0435C7.56336 12.0435 7.16452 12.0156 6.77714 11.9624L6.50484 13.9438C6.9825 14.0094 7.47233 14.0435 7.97101 14.0435V12.0435Z" fill="#0582CA" mask="url(#path-1-inside-1)"/>
<mask id="path-3-inside-2" fill="white">
<path fill-rule="evenodd" clip-rule="evenodd" d="M17.4862 10.1055C19.0182 9.09643 20 7.54145 20 5.79704C20 2.75547 17.0152 0.289795 13.3333 0.289795C9.65139 0.289795 6.66663 2.75547 6.66663 5.79704C6.66663 8.83861 9.65139 11.3043 13.3333 11.3043C13.7975 11.3043 14.2507 11.2651 14.6881 11.1905L17.53 12.7695L17.4862 10.1055Z"/>
</mask>
<path fill-rule="evenodd" clip-rule="evenodd" d="M17.4862 10.1055C19.0182 9.09643 20 7.54145 20 5.79704C20 2.75547 17.0152 0.289795 13.3333 0.289795C9.65139 0.289795 6.66663 2.75547 6.66663 5.79704C6.66663 8.83861 9.65139 11.3043 13.3333 11.3043C13.7975 11.3043 14.2507 11.2651 14.6881 11.1905L17.53 12.7695L17.4862 10.1055Z" fill="white"/>
<path d="M17.4862 10.1055L16.9361 9.27035L16.4773 9.57257L16.4863 10.1219L17.4862 10.1055ZM14.6881 11.1905L15.1738 10.3164L14.8666 10.1456L14.52 10.2047L14.6881 11.1905ZM17.53 12.7695L17.0443 13.6437L18.5583 14.4849L18.5298 12.7531L17.53 12.7695ZM19 5.79704C19 7.14204 18.2444 8.40869 16.9361 9.27035L18.0363 10.9406C19.792 9.78416 21 7.94085 21 5.79704H19ZM13.3333 1.28979C16.6502 1.28979 19 3.47804 19 5.79704H21C21 2.03291 17.3802 -0.710205 13.3333 -0.710205V1.28979ZM7.66663 5.79704C7.66663 3.47804 10.0164 1.28979 13.3333 1.28979V-0.710205C9.28638 -0.710205 5.66663 2.03291 5.66663 5.79704H7.66663ZM13.3333 10.3043C10.0164 10.3043 7.66663 8.11605 7.66663 5.79704H5.66663C5.66663 9.56117 9.28638 12.3043 13.3333 12.3043V10.3043ZM14.52 10.2047C14.1381 10.2698 13.7412 10.3043 13.3333 10.3043V12.3043C13.8538 12.3043 14.3632 12.2603 14.8563 12.1763L14.52 10.2047ZM18.0157 11.8954L15.1738 10.3164L14.2024 12.0646L17.0443 13.6437L18.0157 11.8954ZM16.4863 10.1219L16.5301 12.786L18.5298 12.7531L18.4861 10.089L16.4863 10.1219Z" fill="#0582CA" mask="url(#path-3-inside-2)"/>
</svg>
