<svg width="20" height="16" viewBox="0 0 20 16" fill="none" xmlns="http://www.w3.org/2000/svg">
<rect width="20" height="16" rx="2" fill="white"/>
<path d="M9.21582 9.63184C9.16048 10.3968 8.87728 10.999 8.36621 11.4385C7.8584 11.8779 7.18783 12.0977 6.35449 12.0977C5.44303 12.0977 4.72526 11.7917 4.20117 11.1797C3.68034 10.5645 3.41992 9.72135 3.41992 8.65039V8.21582C3.41992 7.53223 3.54036 6.93001 3.78125 6.40918C4.02214 5.88835 4.36556 5.48958 4.81152 5.21289C5.26074 4.93294 5.78158 4.79297 6.37402 4.79297C7.19434 4.79297 7.85514 5.0127 8.35645 5.45215C8.85775 5.8916 9.14746 6.50846 9.22559 7.30273H7.76074C7.72493 6.84375 7.59635 6.51172 7.375 6.30664C7.1569 6.09831 6.82324 5.99414 6.37402 5.99414C5.88574 5.99414 5.51953 6.16992 5.27539 6.52148C5.03451 6.86979 4.91081 7.41178 4.9043 8.14746V8.68457C4.9043 9.4528 5.01986 10.0143 5.25098 10.3691C5.48535 10.724 5.85319 10.9014 6.35449 10.9014C6.80697 10.9014 7.14388 10.7988 7.36523 10.5938C7.58984 10.3854 7.71842 10.0648 7.75098 9.63184H9.21582ZM15.7588 9.63184C15.7035 10.3968 15.4202 10.999 14.9092 11.4385C14.4014 11.8779 13.7308 12.0977 12.8975 12.0977C11.986 12.0977 11.2682 11.7917 10.7441 11.1797C10.2233 10.5645 9.96289 9.72135 9.96289 8.65039V8.21582C9.96289 7.53223 10.0833 6.93001 10.3242 6.40918C10.5651 5.88835 10.9085 5.48958 11.3545 5.21289C11.8037 4.93294 12.3245 4.79297 12.917 4.79297C13.7373 4.79297 14.3981 5.0127 14.8994 5.45215C15.4007 5.8916 15.6904 6.50846 15.7686 7.30273H14.3037C14.2679 6.84375 14.1393 6.51172 13.918 6.30664C13.6999 6.09831 13.3662 5.99414 12.917 5.99414C12.4287 5.99414 12.0625 6.16992 11.8184 6.52148C11.5775 6.86979 11.4538 7.41178 11.4473 8.14746V8.68457C11.4473 9.4528 11.5628 10.0143 11.7939 10.3691C12.0283 10.724 12.3962 10.9014 12.8975 10.9014C13.3499 10.9014 13.6868 10.7988 13.9082 10.5938C14.1328 10.3854 14.2614 10.0648 14.2939 9.63184H15.7588Z" fill="#0582CA"/>
</svg>
